<svg xmlns="http://www.w3.org/2000/svg" version="1.1" xmlns:xlink="http://www.w3.org/1999/xlink" xmlns:svgjs="http://svgjs.dev/svgjs" width="1432" height="595" preserveAspectRatio="none" viewBox="0 0 1432 595"><g mask="url(&quot;#SvgjsMask2717&quot;)" fill="none"><rect width="1432" height="595" x="0" y="0" fill="rgba(246, 246, 246, 1)"></rect><path d="M950.8 289.06L938 288.92 935.32 276.4 922.52 276.26 919.84 263.73 907.04 263.59 904.36 251.07M955.87 282.87L943.06 282.73 940.39 270.21 927.58 270.07 924.91 257.54 912.1 257.4 909.43 244.88M960.93 276.68L948.13 276.54 945.45 264.02 932.65 263.87 929.97 251.35 917.17 251.21 914.5 238.69" stroke="rgba(253, 65, 65, 1)" stroke-width="1" stroke-dasharray="4, 4"></path><rect width="276" height="276" clip-path="url(&quot;#SvgjsClipPath2718&quot;)" x="131.38" y="396.44" fill="url(&quot;#SvgjsPattern2719&quot;)" transform="rotate(202.91, 269.38, 534.44)"></rect><rect width="258.72" height="258.72" clip-path="url(&quot;#SvgjsClipPath2720&quot;)" x="73.68" y="-129.2" fill="url(&quot;#SvgjsPattern2721&quot;)" transform="rotate(268.91, 203.04, 0.16)"></rect><rect width="72" height="72" clip-path="url(&quot;#SvgjsClipPath2722&quot;)" x="439.33" y="527.32" fill="url(&quot;#SvgjsPattern2723&quot;)" transform="rotate(130.85, 475.33, 563.32)"></rect><circle r="49.583333333333336" cx="1394.66" cy="394.06" stroke="rgba(67, 239, 231, 1)" stroke-width="1" stroke-dasharray="4, 4"></circle><circle r="80.91956639848058" cx="747.81" cy="527.2" fill="rgba(253, 65, 65, 1)"></circle><path d="M1251.71 292.32 L1245.3700000000001 251.32999999999998L1276.1567556574714 244.20824434252856z" fill="rgba(67, 239, 231, 1)"></path><rect width="108" height="108" clip-path="url(&quot;#SvgjsClipPath2724&quot;)" x="874.46" y="84.76" fill="url(&quot;#SvgjsPattern2725&quot;)" transform="rotate(357.72, 928.46, 138.76)"></rect><rect width="119.2" height="119.2" clip-path="url(&quot;#SvgjsClipPath2726&quot;)" x="1056.99" y="254.9" fill="url(&quot;#SvgjsPattern2727&quot;)" transform="rotate(106.91, 1116.59, 314.5)"></rect><path d="M104.89 187.86a5.6 5.6 0 1 0-10.12-4.79 5.6 5.6 0 1 0 10.12 4.79zM90.43 181.02a5.6 5.6 0 1 0-10.13-4.78 5.6 5.6 0 1 0 10.13 4.78zM75.96 174.18a5.6 5.6 0 1 0-10.12-4.78 5.6 5.6 0 1 0 10.12 4.78zM61.5 167.35a5.6 5.6 0 1 0-10.13-4.79 5.6 5.6 0 1 0 10.13 4.79zM140.66 187.07a5.6 5.6 0 1 0-10.13-4.79 5.6 5.6 0 1 0 10.13 4.79zM126.2 180.23a5.6 5.6 0 1 0-10.13-4.78 5.6 5.6 0 1 0 10.13 4.78zM111.73 173.39a5.6 5.6 0 1 0-10.13-4.78 5.6 5.6 0 1 0 10.13 4.78zM97.26 166.56a5.6 5.6 0 1 0-10.12-4.79 5.6 5.6 0 1 0 10.12 4.79zM176.43 186.28a5.6 5.6 0 1 0-10.13-4.79 5.6 5.6 0 1 0 10.13 4.79zM161.96 179.44a5.6 5.6 0 1 0-10.12-4.78 5.6 5.6 0 1 0 10.12 4.78zM147.5 172.6a5.6 5.6 0 1 0-10.13-4.78 5.6 5.6 0 1 0 10.13 4.78zM133.03 165.77a5.6 5.6 0 1 0-10.12-4.79 5.6 5.6 0 1 0 10.12 4.79z" fill="rgba(253, 65, 65, 1)"></path><rect width="276" height="276" clip-path="url(&quot;#SvgjsClipPath2728&quot;)" x="701.91" y="138.18" fill="url(&quot;#SvgjsPattern2729&quot;)" transform="rotate(5.26, 839.91, 276.18)"></rect></g><defs><mask id="SvgjsMask2717"><rect width="1432" height="595" fill="#ffffff"></rect></mask><pattern x="0" y="0" width="6" height="6" patternUnits="userSpaceOnUse" id="SvgjsPattern2719"><path d="M0 6L3 0L6 6" stroke="rgba(253, 65, 65, 1)" fill="none"></path></pattern><clipPath id="SvgjsClipPath2718"><circle r="69" cx="269.38" cy="534.44"></circle></clipPath><pattern x="0" y="0" width="258.72" height="9.24" patternUnits="userSpaceOnUse" id="SvgjsPattern2721"><rect width="258.72" height="4.62" x="0" y="0" fill="rgba(60, 243, 174, 1)"></rect><rect width="258.72" height="4.62" x="0" y="4.62" fill="rgba(0, 0, 0, 0)"></rect></pattern><clipPath id="SvgjsClipPath2720"><circle r="64.68" cx="203.04" cy="0.16"></circle></clipPath><pattern x="0" y="0" width="6" height="6" patternUnits="userSpaceOnUse" id="SvgjsPattern2723"><path d="M3 1L3 5M1 3L5 3" stroke="rgba(253, 65, 65, 1)" fill="none" stroke-width="1"></path></pattern><clipPath id="SvgjsClipPath2722"><circle r="18" cx="475.33" cy="563.32"></circle></clipPath><pattern x="0" y="0" width="108" height="6" patternUnits="userSpaceOnUse" id="SvgjsPattern2725"><rect width="108" height="3" x="0" y="0" fill="rgba(253, 65, 65, 1)"></rect><rect width="108" height="3" x="0" y="3" fill="rgba(0, 0, 0, 0)"></rect></pattern><clipPath id="SvgjsClipPath2724"><circle r="27" cx="928.46" cy="138.76"></circle></clipPath><pattern x="0" y="0" width="11.92" height="11.92" patternUnits="userSpaceOnUse" id="SvgjsPattern2727"><path d="M5.96 1L5.96 10.92M1 5.96L10.92 5.96" stroke="rgba(60, 243, 174, 1)" fill="none" stroke-width="3.49"></path></pattern><clipPath id="SvgjsClipPath2726"><circle r="29.8" cx="1116.59" cy="314.5"></circle></clipPath><pattern x="0" y="0" width="6" height="6" patternUnits="userSpaceOnUse" id="SvgjsPattern2729"><path d="M0 6L3 0L6 6" stroke="rgba(60, 243, 174, 1)" fill="none"></path></pattern><clipPath id="SvgjsClipPath2728"><circle r="69" cx="839.91" cy="276.18"></circle></clipPath></defs></svg>