<svg xmlns="http://www.w3.org/2000/svg" version="1.1" xmlns:xlink="http://www.w3.org/1999/xlink" xmlns:svgjs="http://svgjs.dev/svgjs" width="1528" height="598" preserveAspectRatio="none" viewBox="0 0 1528 598"><g mask="url(&quot;#SvgjsMask6587&quot;)" fill="none"><rect width="1528" height="598" x="0" y="0" fill="rgba(246, 246, 246, 1)"></rect><path d="M74.38 262.87a5.6 5.6 0 1 0-6.13-9.38 5.6 5.6 0 1 0 6.13 9.38zM65.63 249.47a5.6 5.6 0 1 0-6.13-9.37 5.6 5.6 0 1 0 6.13 9.37zM56.88 236.08a5.6 5.6 0 1 0-6.13-9.38 5.6 5.6 0 1 0 6.13 9.38zM48.13 222.68a5.6 5.6 0 1 0-6.13-9.37 5.6 5.6 0 1 0 6.13 9.37zM105.28 280.9a5.6 5.6 0 1 0-6.13-9.37 5.6 5.6 0 1 0 6.13 9.37zM96.53 267.51a5.6 5.6 0 1 0-6.13-9.38 5.6 5.6 0 1 0 6.13 9.38zM87.78 254.11a5.6 5.6 0 1 0-6.13-9.37 5.6 5.6 0 1 0 6.13 9.37zM79.02 240.72a5.6 5.6 0 1 0-6.12-9.38 5.6 5.6 0 1 0 6.12 9.38z" stroke="rgba(67, 239, 231, 1)" stroke-width="1"></path><rect width="383.04" height="383.04" clip-path="url(&quot;#SvgjsClipPath6588&quot;)" x="464.84" y="327.96" fill="url(&quot;#SvgjsPattern6589&quot;)" transform="rotate(292.3, 656.36, 519.48)"></rect><rect width="136" height="136" clip-path="url(&quot;#SvgjsClipPath6590&quot;)" x="1050.27" y="-29.63" fill="url(&quot;#SvgjsPattern6591&quot;)" transform="rotate(45.44, 1118.27, 38.37)"></rect><circle r="49.833333333333336" cx="112.2" cy="195.32" stroke="rgba(253, 65, 65, 1)" stroke-width="1.46" stroke-dasharray="2, 2"></circle><rect width="197.12" height="197.12" clip-path="url(&quot;#SvgjsClipPath6592&quot;)" x="1360.19" y="213.4" fill="url(&quot;#SvgjsPattern6593&quot;)" transform="rotate(29.78, 1458.75, 311.96)"></rect><rect width="228" height="228" clip-path="url(&quot;#SvgjsClipPath6594&quot;)" x="-92.26" y="15.52" fill="url(&quot;#SvgjsPattern6595&quot;)" transform="rotate(287.29, 21.74, 129.52)"></rect><rect width="284.96" height="284.96" clip-path="url(&quot;#SvgjsClipPath6596&quot;)" x="423.25" y="226.82" fill="url(&quot;#SvgjsPattern6597&quot;)" transform="rotate(298.25, 565.73, 369.3)"></rect><rect width="60" height="60" clip-path="url(&quot;#SvgjsClipPath6598&quot;)" x="1391.98" y="370.97" fill="url(&quot;#SvgjsPattern6599&quot;)" transform="rotate(257.3, 1421.98, 400.97)"></rect><rect width="324" height="324" clip-path="url(&quot;#SvgjsClipPath6600&quot;)" x="596.7" y="119.44" fill="url(&quot;#SvgjsPattern6601&quot;)" transform="rotate(158.25, 758.7, 281.44)"></rect><rect width="216" height="216" clip-path="url(&quot;#SvgjsClipPath6602&quot;)" x="174.09" y="47.31" fill="url(&quot;#SvgjsPattern6603&quot;)" transform="rotate(153.23, 282.09, 155.31)"></rect><path d="M502.78 81.57a5.6 5.6 0 1 0 9.87 5.31 5.6 5.6 0 1 0-9.87-5.31zM516.87 89.16a5.6 5.6 0 1 0 9.86 5.3 5.6 5.6 0 1 0-9.86-5.3zM530.96 96.74a5.6 5.6 0 1 0 9.86 5.31 5.6 5.6 0 1 0-9.86-5.31zM545.05 104.32a5.6 5.6 0 1 0 9.86 5.31 5.6 5.6 0 1 0-9.86-5.31zM467.02 80.5a5.6 5.6 0 1 0 9.86 5.3 5.6 5.6 0 1 0-9.86-5.3zM481.11 88.08a5.6 5.6 0 1 0 9.86 5.31 5.6 5.6 0 1 0-9.86-5.31zM495.2 95.66a5.6 5.6 0 1 0 9.86 5.31 5.6 5.6 0 1 0-9.86-5.31zM509.29 103.24a5.6 5.6 0 1 0 9.86 5.31 5.6 5.6 0 1 0-9.86-5.31zM431.26 79.42a5.6 5.6 0 1 0 9.86 5.31 5.6 5.6 0 1 0-9.86-5.31zM445.35 87a5.6 5.6 0 1 0 9.86 5.31 5.6 5.6 0 1 0-9.86-5.31zM459.44 94.58a5.6 5.6 0 1 0 9.86 5.31 5.6 5.6 0 1 0-9.86-5.31zM473.53 102.17a5.6 5.6 0 1 0 9.86 5.31 5.6 5.6 0 1 0-9.86-5.31z" stroke="rgba(160, 252, 250, 1)" stroke-width="1" stroke-dasharray="2, 2"></path><circle r="49.833333333333336" cx="842.01" cy="521.36" fill="rgba(160, 252, 250, 1)"></circle></g><defs><mask id="SvgjsMask6587"><rect width="1528" height="598" fill="#ffffff"></rect></mask><pattern x="0" y="0" width="6.84" height="6.84" patternUnits="userSpaceOnUse" id="SvgjsPattern6589"><path d="M3.42 1L3.42 5.84M1 3.42L5.84 3.42" stroke="rgba(60, 243, 174, 1)" fill="none" stroke-width="1.09"></path></pattern><clipPath id="SvgjsClipPath6588"><circle r="95.76" cx="656.36" cy="519.48"></circle></clipPath><pattern x="0" y="0" width="136" height="13.6" patternUnits="userSpaceOnUse" id="SvgjsPattern6591"><rect width="136" height="6.8" x="0" y="0" fill="rgba(160, 252, 250, 1)"></rect><rect width="136" height="6.8" x="0" y="6.8" fill="rgba(0, 0, 0, 0)"></rect></pattern><clipPath id="SvgjsClipPath6590"><circle r="34" cx="1118.27" cy="38.37"></circle></clipPath><pattern x="0" y="0" width="12.32" height="12.32" patternUnits="userSpaceOnUse" id="SvgjsPattern6593"><path d="M0 12.32L6.16 0L12.32 12.32" stroke="rgba(160, 252, 250, 1)" fill="none"></path></pattern><clipPath id="SvgjsClipPath6592"><circle r="49.28" cx="1458.75" cy="311.96"></circle></clipPath><pattern x="0" y="0" width="228" height="6" patternUnits="userSpaceOnUse" id="SvgjsPattern6595"><rect width="228" height="3" x="0" y="0" fill="rgba(160, 252, 250, 1)"></rect><rect width="228" height="3" x="0" y="3" fill="rgba(0, 0, 0, 0)"></rect></pattern><clipPath id="SvgjsClipPath6594"><circle r="57" cx="21.74" cy="129.52"></circle></clipPath><pattern x="0" y="0" width="284.96" height="10.96" patternUnits="userSpaceOnUse" id="SvgjsPattern6597"><rect width="284.96" height="5.48" x="0" y="0" fill="rgba(67, 239, 231, 1)"></rect><rect width="284.96" height="5.48" x="0" y="5.48" fill="rgba(0, 0, 0, 0)"></rect></pattern><clipPath id="SvgjsClipPath6596"><circle r="71.24" cx="565.73" cy="369.3"></circle></clipPath><pattern x="0" y="0" width="6" height="6" patternUnits="userSpaceOnUse" id="SvgjsPattern6599"><path d="M0 6L3 0L6 6" stroke="rgba(67, 239, 231, 1)" fill="none"></path></pattern><clipPath id="SvgjsClipPath6598"><circle r="15" cx="1421.98" cy="400.97"></circle></clipPath><pattern x="0" y="0" width="324" height="6" patternUnits="userSpaceOnUse" id="SvgjsPattern6601"><rect width="324" height="3" x="0" y="0" fill="rgba(67, 239, 231, 1)"></rect><rect width="324" height="3" x="0" y="3" fill="rgba(0, 0, 0, 0)"></rect></pattern><clipPath id="SvgjsClipPath6600"><circle r="81" cx="758.7" cy="281.44"></circle></clipPath><pattern x="0" y="0" width="6" height="6" patternUnits="userSpaceOnUse" id="SvgjsPattern6603"><path d="M3 1L3 5M1 3L5 3" stroke="rgba(67, 239, 231, 1)" fill="none" stroke-width="1.7"></path></pattern><clipPath id="SvgjsClipPath6602"><circle r="54" cx="282.09" cy="155.31"></circle></clipPath></defs></svg>