<svg xmlns="http://www.w3.org/2000/svg" version="1.1" xmlns:xlink="http://www.w3.org/1999/xlink" xmlns:svgjs="http://svgjs.dev/svgjs" viewBox="0 0 800 800"><defs><filter id="bbburst-blur-1" x="-100%" y="-100%" width="400%" height="400%"><feGaussianBlur in="SourceGraphic" stdDeviation="1"></feGaussianBlur></filter><filter id="bbburst-blur-2" x="-100%" y="-100%" width="400%" height="400%"><feGaussianBlur in="SourceGraphic" stdDeviation="2"></feGaussianBlur></filter><filter id="bbburst-blur-3" x="-100%" y="-100%" width="400%" height="400%"><feGaussianBlur in="SourceGraphic" stdDeviation="4"></feGaussianBlur></filter><filter id="bbburst-blur-4" x="-100%" y="-100%" width="400%" height="400%"><feGaussianBlur in="SourceGraphic" stdDeviation="12"></feGaussianBlur></filter><symbol id="bbburst-shape-1" viewBox="0 0 194 167"><path d="m97 0 96.129 166.5H.871L97 0Z"></path></symbol><symbol id="bbburst-shape-4" viewBox="0 0 149 143"><path d="M71.647 2.781c.898-2.764 4.808-2.764 5.706 0l15.445 47.534a3 3 0 0 0 2.853 2.073h49.98c2.906 0 4.115 3.719 1.764 5.427L106.96 87.193a2.999 2.999 0 0 0-1.09 3.354l15.445 47.534c.898 2.764-2.266 5.062-4.617 3.354l-40.435-29.378a3 3 0 0 0-3.526 0l-40.435 29.378c-2.351 1.708-5.515-.59-4.617-3.354L43.13 90.547a3 3 0 0 0-1.09-3.354L1.605 57.815c-2.35-1.708-1.142-5.427 1.764-5.427h49.98a3 3 0 0 0 2.853-2.073L71.647 2.781Z"></path></symbol><symbol id="bbburst-shape-6" viewBox="0 0 133 116"><path d="M59.7487 10.2513c-13.6683-13.66839-35.8291-13.66839-49.4974 0-13.66839 13.6683-13.66839 35.8291 0 49.4974l49.4974-49.4974ZM66.5 66.5 41.7513 91.2487 66.5 115.997l24.7487-24.7483L66.5 66.5Zm56.249-6.7513c13.668-13.6683 13.668-35.8291 0-49.4974-13.669-13.66839-35.8294-13.66839-49.4977 0l49.4977 49.4974Zm-112.4977 0 31.5 31.5 49.4974-49.4974-31.5-31.5-49.4974 49.4974Zm80.9974 31.5 31.5003-31.5-49.4977-49.4974-31.5 31.5 49.4974 49.4974Z"></path></symbol><symbol id="bbburst-shape-8" viewBox="0 0 87 168"><path d="m12 12 31.2546 18.0749c16.4102 9.4902 20.014 31.6325 7.4603 45.8369L36.3296 92.1884c-12.5684 14.2206-8.9394 36.3916 7.5068 45.8636L75 156" stroke-width="14" stroke-linecap="round" stroke-linejoin="round"></path></symbol><symbol id="bbburst-shape-10" viewBox="0 0 145 145"><circle cx="72.5" cy="72.5" r="61.5" fill="none" stroke-width="22"></circle></symbol></defs><use xlink:href="#bbburst-shape-8" width="39.88276787047247" opacity="0.3624841299349848" transform="matrix(0.8521185955724662,0.523348735624352,-0.523348735624352,0.8521185955724662,808.4455128694362,-139.97084046562753)" fill="none" stroke="#2c2891" filter="url(#bbburst-blur-2)"></use><use xlink:href="#bbburst-shape-6" width="28.41522011890539" opacity="0.4097164040449275" transform="matrix(0.7481768246172069,-0.6634993889264053,0.6634993889264053,0.7481768246172069,-137.3764662333374,157.6505729620273)" fill="#ffa6d5" filter="url(#bbburst-blur-2)"></use><use xlink:href="#bbburst-shape-6" width="23.769084152802805" opacity="0.3109885672371182" transform="matrix(0.9196431305752527,0.8466147366929948,-0.8466147366929948,0.9196431305752527,806.7104203995791,-277.74207127878896)" fill="#ffa6d5" filter="url(#bbburst-blur-3)"></use><use xlink:href="#bbburst-shape-4" width="24.907577741967778" opacity="0.5952424038835613" transform="matrix(0.9965325647759283,-0.0832036498064249,0.0832036498064249,0.9965325647759283,386.93597772975176,181.64070409433356)" fill="#ffbd9b" filter="url(#bbburst-blur-1)"></use><use xlink:href="#bbburst-shape-4" width="24.831192182733616" opacity="0.6842541839557288" transform="matrix(0.7122446705378975,-0.7019312853053081,0.7019312853053081,0.7122446705378975,65.1592435656139,258.52373989083065)" fill="#2c2891" filter="url(#bbburst-blur-1)"></use><use xlink:href="#bbburst-shape-4" width="20.62913576797071" opacity="0.807462942892401" transform="matrix(0.9098896123560318,0.41485044694032824,-0.41485044694032824,0.9098896123560318,512.8918539786631,106.62190140786373)" fill="#ffa6d5"></use><use xlink:href="#bbburst-shape-6" width="16.06062146593876" opacity="0.6936776688533082" transform="matrix(0.9308615034164911,0.3653722231604229,-0.3653722231604229,0.9308615034164911,548.8713336951163,-112.74580798956856)" fill="#2c2891" filter="url(#bbburst-blur-1)"></use><use xlink:href="#bbburst-shape-4" width="46.29869529488216" opacity="0.2001850970854191" transform="matrix(1.2495452651879315,0.03371394735746248,-0.03371394735746248,1.2495452651879315,616.130003251739,174.97963087183206)" fill="#ffa6d5" filter="url(#bbburst-blur-3)"></use><use xlink:href="#bbburst-shape-4" width="18.34548922201496" opacity="0.7584079315681707" transform="matrix(0.9970091282698096,0.07728388025115143,-0.07728388025115143,0.9970091282698096,401.2655237227949,-106.26183536249067)" fill="#00a19d" filter="url(#bbburst-blur-1)"></use><use xlink:href="#bbburst-shape-4" width="10.511196197856405" opacity="0.8830528954535254" transform="matrix(0.9999931283406513,0.003707191858764972,-0.003707191858764972,0.9999931283406513,442.3884560498962,-25.27893585762189)" fill="#ffa6d5"></use><use xlink:href="#bbburst-shape-6" width="20.32134856374235" opacity="0.7644229956659988" transform="matrix(0.9862265800844675,-0.16539991757826067,0.16539991757826067,0.9862265800844675,418.8802735475914,-39.72966508917716)" fill="#00a19d" filter="url(#bbburst-blur-1)"></use><use xlink:href="#bbburst-shape-4" width="38.21632676458581" opacity="0.16916496496082212" transform="matrix(1.062091857111925,-0.6591364707376934,0.6591364707376934,1.062091857111925,-245.74116054988755,-106.4024225430361)" fill="#ffa6d5" filter="url(#bbburst-blur-3)"></use><use xlink:href="#bbburst-shape-10" width="33.13010357400093" opacity="0.6092057287063053" transform="matrix(0.8991008488200001,0.43774154892031364,-0.43774154892031364,0.8991008488200001,653.8042412918145,181.9863676468476)" fill="none" stroke="#00a19d" filter="url(#bbburst-blur-1)"></use><use xlink:href="#bbburst-shape-8" width="16.599460761898293" opacity="0.8212543643432653" transform="matrix(0.9669048218500547,0.25513734631196977,-0.25513734631196977,0.9669048218500547,551.9279629965444,-44.71575001873623)" fill="none" stroke="#2c2891"></use><use xlink:href="#bbburst-shape-10" width="20.131428081760113" opacity="0.7690959614632313" transform="matrix(0.9999810511566398,-0.006156080543790419,0.006156080543790419,0.9999810511566398,434.1082142145673,92.92263179790314)" fill="none" stroke="#ffbd9b" filter="url(#bbburst-blur-1)"></use><use xlink:href="#bbburst-shape-8" width="39.750536138086204" opacity="0.24910297074134413" transform="matrix(0.9299773498250086,-0.8352497403845474,0.8352497403845474,0.9299773498250086,-290.3249977553474,34.14476457846445)" fill="none" stroke="#ffa6d5" filter="url(#bbburst-blur-3)"></use><use xlink:href="#bbburst-shape-10" width="25.624168079587726" opacity="0.5699565859145684" transform="matrix(0.9860634415334091,-0.16636973664488694,0.16636973664488694,0.9860634415334091,129.74262522041943,38.36228620865808)" fill="none" stroke="#ff5c58" filter="url(#bbburst-blur-1)"></use><use xlink:href="#bbburst-shape-10" width="38.74884625991115" opacity="0.4123934548330833" transform="matrix(0.9594016972778191,0.2820432294178321,-0.2820432294178321,0.9594016972778191,501.0285670930559,275.11042106224124)" fill="none" stroke="#2c2891" filter="url(#bbburst-blur-2)"></use><use xlink:href="#bbburst-shape-4" width="39.09631549691168" opacity="0.05608425516653903" transform="matrix(1.6500052335887463,-0.5830803796473923,0.5830803796473923,1.6500052335887463,-95.00377041104804,-605.9460931701026)" fill="#ffbd9b" filter="url(#bbburst-blur-4)"></use><use xlink:href="#bbburst-shape-6" width="14.62150588548146" opacity="0.7710020199701115" transform="matrix(0.8030959316639468,0.5958497499746203,-0.5958497499746203,0.8030959316639468,577.8647784302793,-12.987382296941291)" fill="#2c2891" filter="url(#bbburst-blur-1)"></use><use xlink:href="#bbburst-shape-6" width="29.33387239457434" opacity="0.3450696558453006" transform="matrix(0.8065898056464915,-0.591111567664815,0.591111567664815,0.8065898056464915,-71.25403133960228,-106.68138190660494)" fill="#ffbd9b" filter="url(#bbburst-blur-2)"></use><use xlink:href="#bbburst-shape-6" width="27.51370258276422" opacity="0.5751208634725358" transform="matrix(0.8992071816198784,-0.43752307884640196,0.43752307884640196,0.8992071816198784,25.87277672963114,5.336386408582712)" fill="#ff5c58" filter="url(#bbburst-blur-1)"></use><use xlink:href="#bbburst-shape-10" width="30.999767467973868" opacity="0.48469823444090554" transform="matrix(0.9640623082913997,-0.26567624231733294,0.26567624231733294,0.9640623082913997,77.80455799653214,-97.166929815478)" fill="none" stroke="#ffa6d5" filter="url(#bbburst-blur-2)"></use><use xlink:href="#bbburst-shape-10" width="42.59383879872072" opacity="0.2121848527769249" transform="matrix(1.2038444748459634,-0.33653897305192887,0.33653897305192887,1.2038444748459634,286.22396633357096,277.0864076878855)" fill="none" stroke="#00a19d" filter="url(#bbburst-blur-3)"></use><use xlink:href="#bbburst-shape-6" width="18.120295465583492" opacity="0.7389955576283114" transform="matrix(0.9910569622831525,0.13343949006980615,-0.13343949006980615,0.9910569622831525,510.63744752301045,-94.6219042490921)" fill="#2c2891" filter="url(#bbburst-blur-1)"></use><use xlink:href="#bbburst-shape-8" width="43.48176295554165" opacity="0.10275318668037359" transform="matrix(1.737226693391081,0.2110531112528097,-0.2110531112528097,1.737226693391081,239.34986196321861,47.00123751849378)" fill="none" stroke="#2c2891" filter="url(#bbburst-blur-4)"></use><use xlink:href="#bbburst-shape-10" width="12.746363292913259" opacity="0.9852886781425685" transform="matrix(0.716248776033987,0.697845033535251,-0.697845033535251,0.716248776033987,668.0663311570528,110.27203786087193)" fill="none" stroke="#00a19d"></use><use xlink:href="#bbburst-shape-6" width="34.56979815331551" opacity="0.28994029131898236" transform="matrix(0.9453193997719205,0.8178454819920791,-0.8178454819920791,0.9453193997719205,422.3122357873391,-129.64395310654578)" fill="#00a19d" filter="url(#bbburst-blur-3)"></use><use xlink:href="#bbburst-shape-10" width="15.347919464147774" opacity="0.9035749751933551" transform="matrix(0.8839136624661328,0.46765012274745266,-0.46765012274745266,0.8839136624661328,548.6730415816397,72.57786737234449)" fill="none" stroke="#ffa6d5"></use><use xlink:href="#bbburst-shape-1" width="16.383233301118388" opacity="0.8649831763361081" transform="matrix(0.8538273383274887,0.5205563142682991,-0.5205563142682991,0.8538273383274887,600.6169354268923,114.97751082905955)" fill="#ff5c58"></use><use xlink:href="#bbburst-shape-1" width="15.213519607048598" opacity="0.8700010841826707" transform="matrix(0.9141136798514932,-0.40545798833955893,0.40545798833955893,0.9141136798514932,273.6895063042863,77.31635107233768)" fill="#2c2891"></use><use xlink:href="#bbburst-shape-6" width="32.3572703902874" opacity="0.30483783073927573" transform="matrix(1.145148960547476,-0.5011325754299308,0.5011325754299308,1.145148960547476,437.3430173325861,129.3716870141576)" fill="#ffa6d5" filter="url(#bbburst-blur-3)"></use><use xlink:href="#bbburst-shape-10" width="29.856976465287616" opacity="0.04528368593379606" transform="matrix(1.672619654445202,-0.514629470166267,0.514629470166267,1.672619654445202,406.85417298104176,-619.2557517203378)" fill="none" stroke="#ff5c58" filter="url(#bbburst-blur-4)"></use><use xlink:href="#bbburst-shape-8" width="26.78147179034817" opacity="0.5565868077818779" transform="matrix(0.8356937866841743,0.5491956799697771,-0.5491956799697771,0.8356937866841743,531.3346019476978,-125.64792904391552)" fill="none" stroke="#2c2891" filter="url(#bbburst-blur-1)"></use><use xlink:href="#bbburst-shape-1" width="36.407069842991895" opacity="0.4209904025393345" transform="matrix(0.9958066544712989,0.09148282303623495,-0.09148282303623495,0.9958066544712989,162.5082310550632,-48.68974732195073)" fill="#ffbd9b" filter="url(#bbburst-blur-2)"></use><use xlink:href="#bbburst-shape-1" width="24.4390638706392" opacity="0.5991028333512247" transform="matrix(0.9749817342206225,0.22228499260217158,-0.22228499260217158,0.9749817342206225,501.95682117290085,-171.3463928168261)" fill="#ffa6d5" filter="url(#bbburst-blur-1)"></use><use xlink:href="#bbburst-shape-10" width="39.80444732241949" opacity="0.2396972139229856" transform="matrix(1.2116332918355361,-0.3073186719283138,0.3073186719283138,1.2116332918355361,433.40150076582563,-369.22151989081635)" fill="none" stroke="#ff5c58" filter="url(#bbburst-blur-3)"></use><use xlink:href="#bbburst-shape-6" width="48.69778675123942" opacity="-0.06115866647456669" transform="matrix(1.7300563805143572,0.26344813577165876,-0.26344813577165876,1.7300563805143572,793.9121731727021,46.08070853100219)" fill="#00a19d" filter="url(#bbburst-blur-4)"></use><use xlink:href="#bbburst-shape-10" width="39.09858343214513" opacity="0.18622411483486556" transform="matrix(1.1540816627288264,-0.48020361905452935,0.48020361905452935,1.1540816627288264,107.4149983618401,305.5633783605083)" fill="none" stroke="#ffa6d5" filter="url(#bbburst-blur-3)"></use><use xlink:href="#bbburst-shape-1" width="25.19856896385618" opacity="0.5072877615369651" transform="matrix(0.9892003403685504,-0.1465697329421872,0.1465697329421872,0.9892003403685504,312.5735196844739,-214.91891971031228)" fill="#ffa6d5" filter="url(#bbburst-blur-2)"></use><use xlink:href="#bbburst-shape-6" width="24.396622473882115" opacity="0.7052940201785428" transform="matrix(0.8857706651164884,0.4641231828072088,-0.4641231828072088,0.8857706651164884,449.0557037637678,82.03872325071865)" fill="#ffa6d5" filter="url(#bbburst-blur-1)"></use><use xlink:href="#bbburst-shape-10" width="40.57119585398842" opacity="0.35023461670837164" transform="matrix(0.7393988363246825,-0.6732676739913371,0.6732676739913371,0.7393988363246825,-64.02393678961684,348.5407716451929)" fill="none" stroke="#ff5c58" filter="url(#bbburst-blur-2)"></use><use xlink:href="#bbburst-shape-6" width="40.07358943624158" opacity="0.15867144346693385" transform="matrix(1.167566888471507,0.44641635380546246,-0.44641635380546246,1.167566888471507,835.3007296693668,-330.6555757576135)" fill="#ffa6d5" filter="url(#bbburst-blur-3)"></use><use xlink:href="#bbburst-shape-4" width="13.178185271395298" opacity="0.8200032315201224" transform="matrix(0.9405562874788526,0.3396378513711305,-0.3396378513711305,0.9405562874788526,610.2476253287082,13.465408681157612)" fill="#2c2891"></use><use xlink:href="#bbburst-shape-10" width="27.859132347976608" opacity="0.5400448801087896" transform="matrix(0.9798566052302493,-0.19970236149492918,0.19970236149492918,0.9798566052302493,436.8156025607626,-149.94236810983074)" fill="none" stroke="#00a19d" filter="url(#bbburst-blur-2)"></use><use xlink:href="#bbburst-shape-4" width="40.57959489478465" opacity="0.06896914548121524" transform="matrix(1.7402689665270354,0.18429303878042788,-0.18429303878042788,1.7402689665270354,78.54934506042926,-85.21854956142056)" fill="#ffbd9b" filter="url(#bbburst-blur-4)"></use><use xlink:href="#bbburst-shape-4" width="14.301378900306982" opacity="0.811504522646084" transform="matrix(0.9356339952888495,0.35297170829944013,-0.35297170829944013,0.9356339952888495,613.1816909387455,54.90671741077108)" fill="#ffbd9b"></use><use xlink:href="#bbburst-shape-8" width="23.08638163826525" opacity="0.4754005639500424" transform="matrix(0.9878802860965782,0.15521771916164362,-0.15521771916164362,0.9878802860965782,511.1310899216637,-225.1434045551008)" fill="none" stroke="#00a19d" filter="url(#bbburst-blur-2)"></use><use xlink:href="#bbburst-shape-8" width="17.577516981981688" opacity="0.682288331114592" transform="matrix(0.9753615899780567,-0.22061225894196657,0.22061225894196657,0.9753615899780567,217.38358155264237,-102.56906243144482)" fill="none" stroke="#ff5c58" filter="url(#bbburst-blur-1)"></use><use xlink:href="#bbburst-shape-4" width="33.32061661773861" opacity="0.34666801306943107" transform="matrix(0.7181266710683639,0.6959124113710503,-0.6959124113710503,0.7181266710683639,661.0069814712077,-192.7733932181472)" fill="#2c2891" filter="url(#bbburst-blur-2)"></use><use xlink:href="#bbburst-shape-6" width="26.47286327119099" opacity="0.5347603579156175" transform="matrix(0.9182468692961154,-0.3960084431270156,0.3960084431270156,0.9182468692961154,107.31986876345053,207.99264994401614)" fill="#00a19d" filter="url(#bbburst-blur-2)"></use><use xlink:href="#bbburst-shape-10" width="17.69997867639767" opacity="0.7304975276868302" transform="matrix(0.9809467038931425,0.19427702931942128,-0.19427702931942128,0.9809467038931425,562.7542078759416,82.86664654593056)" fill="none" stroke="#ff5c58" filter="url(#bbburst-blur-1)"></use><use xlink:href="#bbburst-shape-6" width="35.109300444530355" opacity="0.2454304789224261" transform="matrix(0.90216367788385,0.8652171393974375,-0.8652171393974375,0.90216367788385,1042.1296074008408,-110.32645093836283)" fill="#00a19d" filter="url(#bbburst-blur-3)"></use><use xlink:href="#bbburst-shape-4" width="26.17472997084873" opacity="0.6985699419164906" transform="matrix(0.8055205705743442,0.592567810787578,-0.592567810787578,0.8055205705743442,491.5952546587083,55.64288935330069)" fill="#00a19d" filter="url(#bbburst-blur-1)"></use><use xlink:href="#bbburst-shape-4" width="32.346953979816" opacity="0.11873249677865028" transform="matrix(1.1659990678443926,0.45049547587740313,-0.45049547587740313,1.1659990678443926,736.1048188246588,282.32694277070516)" fill="#ffa6d5" filter="url(#bbburst-blur-3)"></use><use xlink:href="#bbburst-shape-10" width="17.604297641736345" opacity="0.7609649078027508" transform="matrix(0.9992839888864093,0.03783529509950493,-0.03783529509950493,0.9992839888864093,314.02958256570844,-55.26895583306214)" fill="none" stroke="#ff5c58" filter="url(#bbburst-blur-1)"></use><use xlink:href="#bbburst-shape-6" width="18.099198789673935" opacity="0.8012173312165429" transform="matrix(0.9462113561562187,-0.32354917629474744,0.32354917629474744,0.9462113561562187,172.59611489169808,22.09811309716929)" fill="#00a19d"></use><use xlink:href="#bbburst-shape-10" width="34.45788216061834" opacity="0.3820362987129974" transform="matrix(0.7564396340757391,0.6540635137349904,-0.6540635137349904,0.7564396340757391,564.2121578856568,-178.8172113437888)" fill="none" stroke="#00a19d" filter="url(#bbburst-blur-2)"></use><use xlink:href="#bbburst-shape-10" width="29.473239150843085" opacity="0.41298687652463717" transform="matrix(0.91347360630412,-0.4068979854776203,0.4068979854776203,0.91347360630412,359.46033704433455,-186.04045620006295)" fill="none" stroke="#00a19d" filter="url(#bbburst-blur-2)"></use><use xlink:href="#bbburst-shape-4" width="51.03885902120782" opacity="0.37902699512523896" transform="matrix(0.9999078897861863,0.013572470052868728,-0.013572470052868728,0.9999078897861863,492.14954299889354,255.64316060131625)" fill="#ff5c58" filter="url(#bbburst-blur-2)"></use><use xlink:href="#bbburst-shape-6" width="34.658547372923245" opacity="0.3204720160894753" transform="matrix(1.2499662473114677,0.009185890380724055,-0.009185890380724055,1.2499662473114677,674.0110737962975,-9.352059857380937)" fill="#ff5c58" filter="url(#bbburst-blur-3)"></use><use xlink:href="#bbburst-shape-6" width="10.56076398868331" opacity="0.8930509192542607" transform="matrix(0.9887375815995331,-0.14965959619318306,0.14965959619318306,0.9887375815995331,331.39020846296256,-42.702467308706616)" fill="#00a19d"></use><use xlink:href="#bbburst-shape-8" width="11.618022049335517" opacity="0.8472509721127439" transform="matrix(0.8557130706079115,-0.5174506167652906,0.5174506167652906,0.8557130706079115,148.81044861953828,4.283717947985338)" fill="none" stroke="#00a19d"></use><use xlink:href="#bbburst-shape-4" width="21.41838268148984" opacity="0.7106596900952771" transform="matrix(0.7576234869528512,0.652691850736167,-0.652691850736167,0.7576234869528512,781.852602798946,108.33584175152725)" fill="#ffa6d5" filter="url(#bbburst-blur-1)"></use><use xlink:href="#bbburst-shape-10" width="40.1169705421169" opacity="0.19266391601871757" transform="matrix(1.0761507148865141,0.6359242398660745,-0.6359242398660745,1.0761507148865141,365.3140266786147,202.64526729530132)" fill="none" stroke="#2c2891" filter="url(#bbburst-blur-3)"></use><use xlink:href="#bbburst-shape-6" width="21.669574712811887" opacity="0.6694589776196043" transform="matrix(0.9810163120987561,-0.19392523145830232,0.19392523145830232,0.9810163120987561,455.15435206902794,-29.983693253714875)" fill="#ffa6d5" filter="url(#bbburst-blur-1)"></use><use xlink:href="#bbburst-shape-10" width="24.200715002022758" opacity="0.5466661299425251" transform="matrix(0.9458137161516187,0.3247097385965891,-0.3247097385965891,0.9458137161516187,689.2731473695547,-93.75287055092627)" fill="none" stroke="#2c2891" filter="url(#bbburst-blur-2)"></use><use xlink:href="#bbburst-shape-1" width="13.6818138417434" opacity="0.8944342734045424" transform="matrix(0.8726412854697427,0.48836173774540836,-0.48836173774540836,0.8726412854697427,541.8621524993948,47.786962806102736)" fill="#00a19d"></use><use xlink:href="#bbburst-shape-4" width="34.25777901350218" opacity="0.47704168328815244" transform="matrix(0.9811941353066759,0.1930234929737429,-0.1930234929737429,0.9811941353066759,677.7645817940131,94.4238428079309)" fill="#ffa6d5" filter="url(#bbburst-blur-2)"></use><use xlink:href="#bbburst-shape-10" width="34.54958820357386" opacity="0.34969580312297055" transform="matrix(0.7771729237236422,0.6292870939649452,-0.6292870939649452,0.7771729237236422,537.7662450868997,353.08989271501605)" fill="none" stroke="#2c2891" filter="url(#bbburst-blur-2)"></use><use xlink:href="#bbburst-shape-4" width="30.870604856096342" opacity="0.5892887286109396" transform="matrix(0.9391763017115181,0.343435400480899,-0.343435400480899,0.9391763017115181,365.87030904951234,116.5748751961981)" fill="#ffbd9b" filter="url(#bbburst-blur-1)"></use><use xlink:href="#bbburst-shape-4" width="37.55395747741228" opacity="0.3690002377094791" transform="matrix(0.9565039335541362,0.2917194287246986,-0.2917194287246986,0.9565039335541362,782.5318514884937,3.180993196350471)" fill="#ffa6d5" filter="url(#bbburst-blur-2)"></use><use xlink:href="#bbburst-shape-6" width="14.444286190760993" opacity="0.9318936928444724" transform="matrix(0.784257194715578,0.6204358569077484,-0.6204358569077484,0.784257194715578,652.7459498423933,110.70441928585512)" fill="#ffa6d5"></use><use xlink:href="#bbburst-shape-6" width="21.292765241430438" opacity="0.5337246939795248" transform="matrix(0.8910715604161851,-0.4538628363475744,0.4538628363475744,0.8910715604161851,413.7756591169139,2.796606387799102)" fill="#ff5c58" filter="url(#bbburst-blur-2)"></use><use xlink:href="#bbburst-shape-6" width="27.58347138846232" opacity="0.14973656380843325" transform="matrix(1.2226289463561355,0.26015083996037003,-0.26015083996037003,1.2226289463561355,597.7567304187216,-458.9364498141955)" fill="#ff5c58" filter="url(#bbburst-blur-3)"></use><use xlink:href="#bbburst-shape-4" width="33.86195402640493" opacity="0.08215869560470646" transform="matrix(1.2578718887118818,1.216658666836514,-1.216658666836514,1.2578718887118818,1214.9655112683897,96.16989906783886)" fill="#ffbd9b" filter="url(#bbburst-blur-4)"></use><use xlink:href="#bbburst-shape-10" width="15.679945502403054" opacity="0.8469562380832463" transform="matrix(0.8714981696973397,0.49039875633425783,-0.49039875633425783,0.8714981696973397,528.163668629933,15.900359823104168)" fill="none" stroke="#ff5c58"></use><use xlink:href="#bbburst-shape-10" width="13.205692205083196" opacity="0.9236716774069966" transform="matrix(0.924874165443904,0.38027329395375914,-0.38027329395375914,0.924874165443904,522.8895914836538,2.1315641243584764)" fill="none" stroke="#ff5c58"></use><use xlink:href="#bbburst-shape-8" width="40.27935666014434" opacity="0.2657633271553639" transform="matrix(1.2400773243141507,-0.1571885165075888,0.1571885165075888,1.2400773243141507,10.999292802957186,43.06428491628202)" fill="none" stroke="#2c2891" filter="url(#bbburst-blur-3)"></use><use xlink:href="#bbburst-shape-8" width="43.304727251541166" opacity="0.07292731792425344" transform="matrix(1.7143531194063597,-0.35141625173244917,0.35141625173244917,1.7143531194063597,-136.5520969002891,-490.868557862573)" fill="none" stroke="#2c2891" filter="url(#bbburst-blur-4)"></use><use xlink:href="#bbburst-shape-10" width="26.64473310610371" opacity="0.18828665783860588" transform="matrix(1.2145278454757218,-0.2956723060486074,0.2956723060486074,1.2145278454757218,627.5149401793092,-130.91089816237218)" fill="none" stroke="#00a19d" filter="url(#bbburst-blur-3)"></use><use xlink:href="#bbburst-shape-8" width="34.20456009051378" opacity="0.4424781626525526" transform="matrix(0.9912529519324973,0.13197569960076103,-0.13197569960076103,0.9912529519324973,292.7215805717882,-204.81896048463628)" fill="none" stroke="#ffbd9b" filter="url(#bbburst-blur-2)"></use><use xlink:href="#bbburst-shape-10" width="26.938341194292185" opacity="0.6496893885014199" transform="matrix(0.7615261753887101,-0.6481341560185233,0.6481341560185233,0.7615261753887101,-6.581628290794981,26.261274526278896)" fill="none" stroke="#2c2891" filter="url(#bbburst-blur-1)"></use><use xlink:href="#bbburst-shape-4" width="31.006535479340467" opacity="0.2639554798693491" transform="matrix(1.24269105948783,-0.13497751912453737,0.13497751912453737,1.24269105948783,146.019570178495,-372.5174160442021)" fill="#ffbd9b" filter="url(#bbburst-blur-3)"></use><use xlink:href="#bbburst-shape-10" width="36.076458430176096" opacity="0.5411233738057137" transform="matrix(0.9910765106392012,-0.1332942236528849,0.1332942236528849,0.9910765106392012,279.79693424637264,206.56835152939175)" fill="none" stroke="#2c2891" filter="url(#bbburst-blur-2)"></use><use xlink:href="#bbburst-shape-4" width="33.86723897028057" opacity="0.43026454747842424" transform="matrix(0.9702310586909113,0.2421811155963927,-0.2421811155963927,0.9702310586909113,264.12378115289255,145.46072958020426)" fill="#00a19d" filter="url(#bbburst-blur-2)"></use><use xlink:href="#bbburst-shape-8" width="23.952884943273883" opacity="0.6715185674872379" transform="matrix(0.9972307989720935,-0.07436890197844759,0.07436890197844759,0.9972307989720935,470.79371605017013,-93.90255045544848)" fill="none" stroke="#ff5c58" filter="url(#bbburst-blur-1)"></use><use xlink:href="#bbburst-shape-10" width="43.92173637398602" opacity="-0.0688048805103143" transform="matrix(1.600563009245627,0.7076002073449262,-0.7076002073449262,1.600563009245627,309.5488916079379,86.06812865896597)" fill="none" stroke="#ffa6d5" filter="url(#bbburst-blur-4)"></use><use xlink:href="#bbburst-shape-8" width="12.203442995455195" opacity="0.829146586559066" transform="matrix(0.7163447439891295,-0.6977465211372598,0.6977465211372598,0.7163447439891295,109.24902254314776,41.18108452529725)" fill="none" stroke="#ffbd9b"></use><use xlink:href="#bbburst-shape-10" width="34.100225273664" opacity="0.17470239539241683" transform="matrix(1.1762291902880702,-0.42306606093407056,0.42306606093407056,1.1762291902880702,-152.70439220835732,13.204561663834511)" fill="none" stroke="#00a19d" filter="url(#bbburst-blur-3)"></use><use xlink:href="#bbburst-shape-6" width="28.0959802416993" opacity="0.46401749282761307" transform="matrix(0.9979633149596036,0.06379045379082299,-0.06379045379082299,0.9979633149596036,577.4169501344712,174.97351979403555)" fill="#2c2891" filter="url(#bbburst-blur-2)"></use><use xlink:href="#bbburst-shape-1" width="14.271152838440202" opacity="0.8421136237896049" transform="matrix(0.895296328703073,0.4454710807794365,-0.4454710807794365,0.895296328703073,598.3869849152317,-27.164277295042154)" fill="#00a19d"></use><use xlink:href="#bbburst-shape-4" width="26.400143303773888" opacity="0.41409985443086006" transform="matrix(0.8614779091624356,0.5077950492325799,-0.5077950492325799,0.8614779091624356,835.1631565997434,-52.54717297359673)" fill="#ffbd9b" filter="url(#bbburst-blur-2)"></use><use xlink:href="#bbburst-shape-8" width="23.672496778440085" opacity="0.6969009234018076" transform="matrix(0.9318820701041545,0.36276136428566325,-0.36276136428566325,0.9318820701041545,440.04540918072803,121.75628234231795)" fill="none" stroke="#00a19d" filter="url(#bbburst-blur-1)"></use><use xlink:href="#bbburst-shape-4" width="18.53965876183608" opacity="0.65626184110871" transform="matrix(0.831191268343009,0.5559865784624121,-0.5559865784624121,0.831191268343009,578.0308508072148,-87.89417867297618)" fill="#ffa6d5" filter="url(#bbburst-blur-1)"></use><use xlink:href="#bbburst-shape-10" width="26.58952346711543" opacity="0.5663992191866007" transform="matrix(0.9734944927156179,0.22871045593142797,-0.22871045593142797,0.9734944927156179,343.13509509812786,-132.92677813975263)" fill="none" stroke="#00a19d" filter="url(#bbburst-blur-1)"></use><use xlink:href="#bbburst-shape-10" width="27.50743917835021" opacity="0.6182551086383334" transform="matrix(0.7530101612727874,0.6580088882529861,-0.6580088882529861,0.7530101612727874,801.6396450143075,175.5996403011627)" fill="none" stroke="#ff5c58" filter="url(#bbburst-blur-1)"></use><use xlink:href="#bbburst-shape-6" width="27.276829864606615" opacity="0.16915046693539237" transform="matrix(0.977342070206106,-0.7792961425576563,0.7792961425576563,0.977342070206106,439.17189260993234,104.14374124651016)" fill="#2c2891" filter="url(#bbburst-blur-3)"></use><use xlink:href="#bbburst-shape-10" width="13.02729621577341" opacity="0.9306176754832722" transform="matrix(0.7906115741953014,-0.612318004592734,0.612318004592734,0.7906115741953014,164.4276905870319,60.09544940126216)" fill="none" stroke="#00a19d"></use><use xlink:href="#bbburst-shape-6" width="49.76423125530309" opacity="-0.08182277418003325" transform="matrix(1.3851415094001776,1.069524660275114,-1.069524660275114,1.3851415094001776,1142.9034638742226,-519.4925111605439)" fill="#ff5c58" filter="url(#bbburst-blur-4)"></use><use xlink:href="#bbburst-shape-6" width="46.86969674601833" opacity="0.17482999549601064" transform="matrix(1.2255913945877157,0.2458164630624603,-0.2458164630624603,1.2255913945877157,352.79762901766685,-448.4727197135381)" fill="#ffa6d5" filter="url(#bbburst-blur-3)"></use><use xlink:href="#bbburst-shape-10" width="31.02113334931647" opacity="0.07285039142370531" transform="matrix(1.4884265959651366,0.9203728963977785,-0.9203728963977785,1.4884265959651366,1108.3953872037273,-414.7308873866277)" fill="none" stroke="#00a19d" filter="url(#bbburst-blur-4)"></use><use xlink:href="#bbburst-shape-1" width="18.695222530330522" opacity="0.7514846739102861" transform="matrix(0.9547765173961392,-0.29732440503413077,0.29732440503413077,0.9547765173961392,275.9944166439223,132.65753695815147)" fill="#00a19d" filter="url(#bbburst-blur-1)"></use><use xlink:href="#bbburst-shape-8" width="14.043740892783045" opacity="0.9277915933760748" transform="matrix(0.9730651606492022,0.23053024341882414,-0.23053024341882414,0.9730651606492022,517.7957716499482,11.39649694356666)" fill="none" stroke="#ffbd9b"></use><use xlink:href="#bbburst-shape-8" width="43.814197696574894" opacity="-0.0841579873885181" transform="matrix(1.5771903700779184,0.7582681165217737,-0.7582681165217737,1.5771903700779184,321.7855197194216,-590.459880282569)" fill="none" stroke="#2c2891" filter="url(#bbburst-blur-4)"></use><use xlink:href="#bbburst-shape-4" width="21.09297745808853" opacity="0.8094415241955456" transform="matrix(0.7775625411723606,0.6288056095214013,-0.6288056095214013,0.7775625411723606,567.8858350792059,123.15694726174229)" fill="#00a19d"></use><use xlink:href="#bbburst-shape-4" width="17.430307697922775" opacity="0.6254878876451005" transform="matrix(0.972785540560682,0.2317073414375592,-0.2317073414375592,0.972785540560682,556.9766377711256,-143.1256245562524)" fill="#00a19d" filter="url(#bbburst-blur-1)"></use><use xlink:href="#bbburst-shape-6" width="44.64138083373666" opacity="0.1460373682752869" transform="matrix(1.1803765312062355,0.4113529440487026,-0.4113529440487026,1.1803765312062355,257.7718275833937,-344.08042916239606)" fill="#2c2891" filter="url(#bbburst-blur-3)"></use><use xlink:href="#bbburst-shape-10" width="34.23368319932764" opacity="0.1877353075850141" transform="matrix(1.0350881847529876,0.7007798868294988,-0.7007798868294988,1.0350881847529876,649.3880795747064,-391.31087293574876)" fill="none" stroke="#ff5c58" filter="url(#bbburst-blur-3)"></use><use xlink:href="#bbburst-shape-1" width="23.963438604992447" opacity="0.5577874990038351" transform="matrix(0.9933780851207561,0.11489116589981913,-0.11489116589981913,0.9933780851207561,632.1177736004929,20.50279242665016)" fill="#2c2891" filter="url(#bbburst-blur-1)"></use><use xlink:href="#bbburst-shape-10" width="15.170858206711571" opacity="0.7578562495642894" transform="matrix(0.9999809393460437,-0.0061742161125160995,0.0061742161125160995,0.9999809393460437,418.2676858852266,-105.16497459233045)" fill="none" stroke="#ffbd9b" filter="url(#bbburst-blur-1)"></use></svg>